<?xml version="1.0" standalone="no"?>
<!DOCTYPE svg PUBLIC "-//W3C//DTD SVG 20010904//EN"
 "http://www.w3.org/TR/2001/REC-SVG-20010904/DTD/svg10.dtd">
<svg version="1.0" xmlns="http://www.w3.org/2000/svg"
 width="764.000000pt" height="405.000000pt" viewBox="0 0 764.000000 405.000000"
 preserveAspectRatio="xMidYMid meet">

<g transform="translate(0.000000,405.000000) scale(0.100000,-0.100000)"
fill="#61676D" stroke="none">
<path d="M6287 4040 c-204 -32 -387 -109 -544 -225 -512 -384 -630 -1087 -273
-1621 101 -150 281 -309 445 -391 257 -129 555 -161 841 -88 119 30 309 121
405 194 97 74 236 226 298 325 104 168 166 365 178 564 33 576 -360 1094 -927
1223 -98 23 -333 33 -423 19z m-287 -419 c47 -25 74 -73 74 -131 0 -86 -63
-150 -147 -150 -119 0 -190 115 -135 219 39 76 131 103 208 62z m953 -436
c139 -36 248 -126 309 -255 49 -103 63 -167 62 -290 -1 -174 -43 -295 -141
-401 -64 -68 -119 -104 -201 -129 -191 -59 -389 -14 -521 117 -104 104 -151
236 -151 418 0 67 6 134 15 170 48 187 176 322 352 370 66 18 207 18 276 0z
m-903 -540 l0 -535 -125 0 -125 0 0 528 c0 291 3 532 7 535 3 4 60 7 125 7
l118 0 0 -535z"/>
<path d="M6750 2981 c-78 -24 -117 -60 -157 -146 -26 -56 -28 -69 -28 -185 0
-146 15 -203 72 -270 48 -55 102 -80 178 -80 180 0 277 159 254 416 -17 191
-163 312 -319 265z"/>
<path d="M4730 2961 l-215 -37 -3 -477 -2 -477 -38 19 c-159 80 -382 110 -577
76 -398 -70 -654 -378 -705 -847 -72 -673 250 -1134 845 -1208 125 -16 370 -7
550 19 121 18 360 67 378 78 4 2 7 654 7 1449 0 1149 -3 1444 -12 1443 -7 -1
-110 -18 -228 -38z m-424 -1302 c38 -11 99 -34 137 -51 l67 -31 0 -572 c0
-470 -2 -574 -13 -578 -40 -15 -222 -29 -320 -24 -171 8 -280 55 -372 160
-117 134 -173 368 -146 607 33 288 136 443 331 496 75 21 237 17 316 -7z"/>
<path d="M535 2069 c-117 -10 -360 -51 -460 -76 l-70 -18 -3 -962 -2 -963 230
0 230 0 2 802 3 803 95 13 c52 7 147 12 210 10 103 -3 121 -6 173 -32 94 -46
142 -130 172 -303 12 -70 15 -198 15 -689 l0 -604 231 0 230 0 -4 683 c-3 693
-6 737 -42 830 -6 14 6 23 66 51 103 48 183 66 286 66 129 0 186 -19 249 -84
39 -40 56 -68 72 -117 43 -131 44 -154 49 -802 l5 -627 230 0 229 0 -4 667
c-4 626 -5 675 -25 779 -53 278 -165 433 -379 522 -134 56 -361 77 -515 48
-121 -23 -278 -79 -370 -132 l-78 -44 -62 46 c-74 55 -164 98 -251 120 -76 19
-368 27 -512 13z"/>
</g>
</svg>
